<?xml version="1.0" encoding="UTF-8"?>
<svg width="24px" height="24px" viewBox="0 0 24 24" xmlns="http://www.w3.org/2000/svg">
  <path d="M21.3333 0H2.66667C1.2 0 0 1.2 0 2.66667V21.3333C0 22.8 1.2 24 2.66667 24H21.3333C22.8 24 24 22.8 24 21.3333V2.66667C24 1.2 22.8 0 21.3333 0ZM10.6667 16.9333L6.4 12.6667C5.86667 12.1333 5.86667 11.2 6.4 10.6667L10.6667 6.4C11.2 5.86667 12.1333 5.86667 12.6667 6.4C13.2 6.93333 13.2 7.86667 12.6667 8.4L9.73333 11.3333C9.6 11.4667 9.6 11.7333 9.73333 11.8667L12.6667 14.8C13.2 15.3333 13.2 16.2667 12.6667 16.8C12.1333 17.3333 11.2 17.3333 10.6667 16.9333ZM17.6 16.8C17.0667 17.3333 16.1333 17.3333 15.6 16.8C15.0667 16.2667 15.0667 15.3333 15.6 14.8L18.5333 11.8667C18.6667 11.7333 18.6667 11.4667 18.5333 11.3333L15.6 8.4C15.0667 7.86667 15.0667 6.93333 15.6 6.4C16.1333 5.86667 17.0667 5.86667 17.6 6.4L21.8667 10.6667C22.4 11.2 22.4 12.1333 21.8667 12.6667L17.6 16.8Z" fill="#F78D1E"/>
</svg>
