<?xml version="1.0" encoding="UTF-8"?>
<svg width="24px" height="24px" viewBox="0 0 24 24" xmlns="http://www.w3.org/2000/svg">
  <path d="M11.257.004c-.193.005-.389.016-.582.034-1.877.163-3.729.734-5.115 1.825-1.385 1.088-2.266 2.641-2.782 4.302-.506 1.622-.699 3.351-.633 5.054.04 1.012.188 2.018.404 3.003.146.658.329 1.301.61 1.918.443.988 1.102 1.914 1.594 2.887.284.556.538 1.135.831 1.68.407.777.887 1.5 1.399 2.19.164.222.339.437.519.643h.019c.018.02.034.041.053.061.217.227.448.443.667.673a.26.26 0 0 0 .375.005c.258-.271.514-.545.766-.822l.042-.045-.014-.018c.433-.476.881-.949 1.313-1.431a8.218 8.218 0 0 0 1.584-2.546c.18-.463.326-.942.475-1.419.13-.423.268-.852.459-1.252a18.9 18.9 0 0 1 .712-1.347c.49-.874 1.088-1.676 1.768-2.398a7.234 7.234 0 0 1 1.267-1.1c.86-.587 1.86-.933 2.877-1.001.97-.065 1.97.105 2.845.55.664.337 1.276.818 1.746 1.417.361.458.64.981.85 1.528a6.26 6.26 0 0 1 .443 1.617c.148 1.069.119 2.165.211 3.244.08.933.282 1.839.477 2.747.126.584.252 1.168.37 1.755.052.28.098.563.139.848h.025c.04.27.077.542.11.81.054.483.093.969.116 1.453a.42.42 0 0 0 .341.388c.141.045.323.044.436-.059.194-.151.236-.414.257-.645.062-.732.074-1.468.054-2.201-.037-1.185-.132-2.369-.254-3.547a25.054 25.054 0 0 0-.244-1.683 34.902 34.902 0 0 1-.352-2.239 14.934 14.934 0 0 1-.127-1.525c-.028-.752.003-1.534.298-2.227.278-.652.772-1.198 1.343-1.616.58-.428 1.245-.737 1.911-1.023 1.375-.605 2.87-1.047 4.217-1.692.757-.362 1.517-.774 2.13-1.344.612-.567 1.082-1.333 1.205-2.146a3.323 3.323 0 0 0-.26-1.847c-.354-.788-.9-1.429-1.493-2.017a12.604 12.604 0 0 0-1.969-1.593c-.832-.559-1.676-1.09-2.61-1.453-.468-.185-.977-.336-1.399-.634a1.96 1.96 0 0 1-.671-.805c-.204-.481-.147-1.04.048-1.51.303-.736.839-1.358 1.474-1.8.306-.22.649-.389.968-.576v-.014a.193.193 0 0 0-.048-.344c-.321-.097-.651-.113-.977-.164-1.043-.109-2.107-.105-3.132.13-.763.17-1.5.459-2.172.883a6.534 6.534 0 0 0-1.393 1.277c-.332.42-.636.864-.991 1.259a3.327 3.327 0 0 1-2.734 1.037c-.521-.074-1.017-.271-1.467-.546-.309-.186-.596-.399-.877-.618-.58-.451-1.022-1.039-1.397-1.655-.18-.297-.329-.613-.537-.877-.306-.388-.714-.673-1.16-.858-.578-.237-1.205-.312-1.833-.305-.314.003-.628.022-.938.074-.245.04-.486.119-.722.171a8.133 8.133 0 0 0-1.194.389c-.515.216-1.02.465-1.494.764-.46.287-.853.65-1.26 1.006-.405.353-.824.689-1.169 1.098-.348.414-.614.886-.845 1.378-.263.565-.49 1.151-.646 1.754-.142.553-.207 1.133-.312 1.704-.125.688-.329 1.367-.51 2.046-.106.388-.21.783-.265 1.181-.144.991-.053 2.021.21 2.985.192.704.49 1.392.96 1.937.494.575 1.176.964 1.895 1.168a5.816 5.816 0 0 0 2.422.097c.788-.13 1.55-.418 2.24-.835.694-.416 1.286-.985 1.837-1.573.358-.389.713-.78 1.03-1.202a9.159 9.159 0 0 0 1.09-1.788c.324-.72.587-1.478.73-2.246a7.33 7.33 0 0 0-.027-2.729 4.338 4.338 0 0 0-.621-1.582c-.344-.519-.806-.938-1.316-1.272-.525-.344-1.108-.585-1.698-.776a10.64 10.64 0 0 0-1.599-.324c-.68-.08-1.367-.16-2.053-.125-.769.04-1.498.285-2.152.688-.644.393-1.175.916-1.747 1.398-.218.188-.452.361-.701.506a2.513 2.513 0 0 1-.937.307 1.477 1.477 0 0 1-.935-.175c-.288-.159-.517-.41-.721-.674a4.481 4.481 0 0 1-.702-1.492c-.165-.55-.299-1.111-.349-1.683-.05-.535-.02-1.082.122-1.602.124-.42.343-.818.658-1.133.315-.322.711-.577 1.068-.844.363-.272.7-.576 1.034-.876.43-.379.857-.76 1.285-1.142.394-.351.797-.695 1.214-1.02.455-.355.932-.681 1.422-.985.333-.206.671-.406 1.032-.553a3.493 3.493 0 0 1 1.457-.22c.395.03.802.125 1.15.309.382.202.707.484.999.79.324.337.626.693.918 1.055.279.35.53.721.831 1.047.269.295.579.578.932.787.464.271 1.01.41 1.55.398.38-.008.76-.09 1.12-.208a3.71 3.71 0 0 0 1.083-.582c.418-.314.787-.685 1.162-1.05.382-.37.787-.72 1.224-1.016.502-.344 1.032-.653 1.617-.773.347-.071.757-.073 1.05.116.236.149.39.4.506.657.154.323.264.664.378 1.004.125.371.264.759.513 1.062.244.292.623.49 1.003.496.195.003.385-.033.577-.08-.32-.164-.645-.317-.953-.508-1.02-.63-1.91-1.52-2.528-2.551a8.793 8.793 0 0 1-.893-2.037 12.11 12.11 0 0 1-.488-2.171c-.031-.182-.053-.365-.077-.546-.194.031-.388.07-.58.115zm-3.213 9.421c.317.03.635.087.946.175.661.185 1.273.556 1.773 1.04.336.32.633.685.862 1.087.257.448.442.937.587 1.43.176.603.286 1.23.283 1.854a5.537 5.537 0 0 1-.236 1.494 5.31 5.31 0 0 1-.288.797c-.35.747-.855 1.415-1.465 1.984a7.839 7.839 0 0 1-2.069 1.39c-.72.33-1.49.56-2.275.674-.845.123-1.702.13-2.55.038a6.563 6.563 0 0 1-2.085-.561c-.566-.243-1.106-.56-1.574-.973-.414-.368-.776-.809-1.049-1.307a4.85 4.85 0 0 1-.44-1.013 7.588 7.588 0 0 1-.377-1.745 11.28 11.28 0 0 1-.016-1.895c.043-.666.139-1.326.264-1.98a13.78 13.78 0 0 1 .326-1.371c.056-.191.116-.385.196-.568a3.195 3.195 0 0 1 .312-.589c.378-.542.934-.907 1.504-1.16.574-.254 1.195-.385 1.819-.43.646-.045 1.294-.006 1.936.063.653.071 1.317.171 1.935.391.312.11.617.245.901.407.388.22.736.5 1.07.787.074.063.146.127.22.192.081-.073.168-.139.25-.211z" fill="#5B4638"/>
</svg>
