<?xml version="1.0" encoding="UTF-8"?>
<svg width="24px" height="24px" viewBox="0 0 24 24" xmlns="http://www.w3.org/2000/svg">
  <path d="M20.9868 10.9698V12.6179H20.0216C19.3329 12.6179 18.2625 12.9273 18.2625 14.2525V19.3413H16.499V14.1473C16.499 11.8645 18.1332 10.9698 20.0216 10.9698H20.9868Z" fill="#2F8D46"/>
  <path d="M9.9477 9.17143V19.3413H11.7112V15.4724H14.5048V13.7191H11.7112V11.0298H15.0511V9.17143H9.9477Z" fill="#2F8D46"/>
  <path d="M8.07358 14.5617C8.07358 16.4187 6.7632 17.7581 4.95152 17.7581C3.12985 17.7581 1.81947 16.4187 1.81947 14.5617C1.81947 12.7047 3.12985 11.3652 4.95152 11.3652C6.7632 11.3652 8.07358 12.7047 8.07358 14.5617ZM4.95152 9.50667C2.15757 9.50667 0 11.7188 0 14.5617C0 17.4046 2.15757 19.6167 4.95152 19.6167C7.74547 19.6167 9.90304 17.4046 9.90304 14.5617C9.90304 11.7188 7.74547 9.50667 4.95152 9.50667Z" fill="#2F8D46"/>
  <path d="M15.2887 5.97619V8.29524H8.43271V5.97619H15.2887Z" fill="#2F8D46"/>
  <path d="M15.2887 2.23809V4.55714H8.43271V2.23809H15.2887Z" fill="#2F8D46"/>
  <path d="M24 4.85714C24 6.87225 22.4249 8.49524 20.471 8.49524C18.5171 8.49524 16.942 6.87225 16.942 4.85714C16.942 2.84204 18.5171 1.21905 20.471 1.21905C22.4249 1.21905 24 2.84204 24 4.85714Z" fill="#2F8D46"/>
</svg>
