<?xml version="1.0" encoding="UTF-8"?>
<svg width="24px" height="24px" viewBox="0 0 24 24" xmlns="http://www.w3.org/2000/svg">
  <path d="M0 0v24h24V0zm9.95 8.002h1.805c.061 0 .111.05.111.111v7.767c0 .061-.05.111-.11.111H9.95c-.061 0-.111-.05-.111-.111v-2.87H7.894v2.87c0 .061-.05.111-.11.111H5.976a.11.11 0 01-.11-.11V8.112c0-.06.05-.11.11-.11h1.806c.061 0 .11.05.11.11v2.869H9.84v-2.87c0-.06.05-.11.111-.11zm2.999 0h5.778c.061 0 .111.05.111.111v7.767c0 .061-.05.111-.11.111h-5.78a.11.11 0 01-.11-.11V8.112c0-.06.05-.11.11-.11z" fill="#00EA64"/>
</svg>
